<svg width="70" height="71" fill="none" xmlns="http://www.w3.org/2000/svg"><g clip-path="url(#a)"><path d="m67.316 48.727-18.47-18.45 2.05-10.012a4.687 4.687 0 0 0 1.66.316h.014c2.608.03 4.747-2.041 4.778-4.627.03-2.587-2.059-4.708-4.667-4.739-2.608-.03-4.747 2.042-4.778 4.628a4.645 4.645 0 0 0 .273 1.625l-10.85 1.313L19.628 1.139a1.171 1.171 0 0 0-.824-.347c-.306.001-.6.122-.817.336L14.68 4.391a1.15 1.15 0 0 0 0 1.636l1.78 1.79C9.562 20.396 11.802 35.97 21.97 46.134c.094.089.202.16.32.212a6.66 6.66 0 0 0-.114 1.187v13.42h-14c-3.22.005-5.83 2.592-5.834 5.785v2.314c0 .64.523 1.157 1.167 1.157h53.667c.644 0 1.166-.518 1.166-1.157v-2.314c-.003-3.193-2.613-5.78-5.833-5.784h-14v-5.948c2.193.456 4.428.689 6.669.694a32.7 32.7 0 0 0 15.4-3.869l1.79 1.785c.216.22.513.345.823.347.306-.001.6-.122.817-.336l3.308-3.263a1.15 1.15 0 0 0 0-1.636ZM50.925 14.313a2.347 2.347 0 0 1 3.3.009 2.3 2.3 0 0 1-.01 3.272 2.343 2.343 0 0 1-1.646.673h-.007a2.323 2.323 0 0 1-2.32-2.326c.003-.611.25-1.197.687-1.628h-.004Zm-2.747 7.602-1.309 6.39-2.571-2.565 3.88-3.825Zm-1.325-1.956-4.2 4.14-3.25-3.239 7.45-.901Zm5.656 43.308c1.933 0 3.5 1.554 3.5 3.47v1.157H4.676v-1.157c0-1.916 1.567-3.47 3.5-3.47h44.333Zm-16.333-4.628v2.314H24.509v-2.314h11.667Zm-11.667-2.314v-8.793c0-2.806 2.617-5.09 5.833-5.09 3.217 0 5.834 2.283 5.834 5.09v8.793H24.509Zm14-3.68v-5.113c0-4.083-3.663-7.404-8.167-7.404a8.33 8.33 0 0 0-7.177 3.874C14.289 34.732 12.29 20.91 18.18 9.54l40.692 40.584a30.46 30.46 0 0 1-20.363 2.523Zm24.695-1.482-1.644-1.64L18.792 6.856l-1.65-1.64 1.65-1.631 17.358 17.31c.008 0 .013.015.021.02l28.688 28.616-1.655 1.632Z" fill="#212121"/><path d="M30.353 44.756h-.01c-1.934-.003-3.503 1.548-3.506 3.465-.003 1.917 1.562 3.473 3.495 3.476h.01c1.933.003 3.503-1.549 3.505-3.465.003-1.917-1.561-3.474-3.494-3.476Zm.816 4.29c-.22.217-.517.339-.827.337a1.153 1.153 0 0 1-.817-1.977 1.162 1.162 0 0 1 1.977.826 1.153 1.153 0 0 1-.343.815h.01Z" fill="#2196F3"/></g><defs><clipPath id="a"><path fill="#fff" transform="translate(0 .792)" d="M0 0h70v69.417H0z"/></clipPath></defs></svg>